/* XPM */
static char *_a5321bfd3e344fde82fd380d51f1850ZrLzk5gTeuLDyFO2[] = {
/* columns rows colors chars-per-pixel */
"64 64 239 2 ",
"   c None",
".  c #010100",
"X  c #0C0A01",
"o  c #0B0B08",
"O  c #120D02",
"+  c #1A0F04",
"@  c #161203",
"#  c #1B1703",
"$  c #1A140C",
"%  c #1B1A18",
"&  c #211C04",
"*  c #281A09",
"=  c #231C13",
"-  c #34140A",
";  c #262005",
":  c #2B2506",
">  c #2D250B",
",  c #332B07",
"<  c #3C2409",
"1  c #38270A",
"2  c #3B3208",
"3  c #393107",
"4  c #2B2719",
"5  c #382915",
"6  c #373013",
"7  c #393629",
"8  c #393937",
"9  c #2A2A2B",
"0  c #4B2D0B",
"q  c #402709",
"w  c #42370A",
"e  c #453A0A",
"r  c #4B340D",
"t  c #58360E",
"y  c #472B14",
"u  c #483616",
"i  c #5B3D1A",
"p  c #573A16",
"a  c #572B1C",
"s  c #623D14",
"d  c #5A1023",
"f  c #72162E",
"g  c #553E21",
"h  c #453D2B",
"j  c #4C410B",
"k  c #55480C",
"l  c #594617",
"z  c #63421C",
"x  c #6A451B",
"c  c #674818",
"v  c #744B1E",
"b  c #764914",
"n  c #68551A",
"m  c #71551E",
"M  c #594228",
"N  c #5A4D3B",
"B  c #4F4937",
"V  c #6B4C23",
"C  c #684B25",
"Z  c #734D21",
"A  c #794C21",
"S  c #6C5422",
"D  c #7C5223",
"F  c #7B5B26",
"G  c #7D5A2B",
"H  c #755826",
"J  c #655439",
"K  c #785B34",
"L  c #634F30",
"P  c #7B6427",
"I  c #7C6538",
"U  c #78611F",
"Y  c #6C3943",
"T  c #4A4843",
"R  c #504C42",
"E  c #5B5644",
"W  c #5A5955",
"Q  c #6A5945",
"!  c #675A57",
"~  c #745C43",
"^  c #786549",
"/  c #646359",
"(  c #796A56",
")  c #6E6148",
"_  c #787269",
"`  c #767575",
"'  c #706D6B",
"]  c #825119",
"[  c #8C5B1F",
"{  c #835524",
"}  c #855926",
"|  c #8C5C24",
" . c #8C5D29",
".. c #855929",
"X. c #915E29",
"o. c #865A3A",
"O. c #8D622D",
"+. c #8D6B2E",
"@. c #85672A",
"#. c #94622B",
"$. c #99662C",
"%. c #9D6A2E",
"&. c #976729",
"*. c #81633B",
"=. c #896736",
"-. c #9D6D31",
";. c #956B37",
":. c #9A7233",
">. c #967438",
",. c #91732F",
"<. c #A36D2E",
"1. c #A36E32",
"2. c #A47234",
"3. c #AC7334",
"4. c #AB7A3B",
"5. c #A57839",
"6. c #B37936",
"7. c #BA7C36",
"8. c #B47C3A",
"9. c #BB7E39",
"0. c #B07535",
"q. c #A6702F",
"w. c #895B43",
"e. c #846A48",
"r. c #946B48",
"t. c #977848",
"y. c #8A7557",
"u. c #9B7D54",
"i. c #937C59",
"p. c #906E4E",
"a. c #A57B44",
"s. c #B27D44",
"d. c #A4765B",
"f. c #8A7863",
"g. c #8E7E6B",
"h. c #A97965",
"j. c #A87073",
"k. c #BD813C",
"l. c #B1833E",
"z. c #AF853E",
"x. c #C3843D",
"c. c #C9883F",
"v. c #9A8159",
"b. c #9E8441",
"n. c #A5824E",
"m. c #AA844C",
"M. c #AA8547",
"N. c #BB8542",
"B. c #B88846",
"V. c #BC934D",
"C. c #AB8855",
"Z. c #B18A57",
"A. c #B9955B",
"S. c #9A8568",
"D. c #968C79",
"F. c #88857E",
"G. c #A98D67",
"H. c #BC9563",
"J. c #B99768",
"K. c #A38D74",
"L. c #B78476",
"P. c #A6937A",
"I. c #BC9876",
"U. c #B48866",
"Y. c #C48A44",
"T. c #CB8B42",
"R. c #C68D48",
"E. c #D28E42",
"W. c #C3934C",
"Q. c #CB944C",
"!. c #C9994E",
"~. c #D49448",
"^. c #CB9C52",
"/. c #C99957",
"(. c #D19B53",
"). c #D49E5A",
"_. c #CCA157",
"`. c #D3A35D",
"'. c #DAA45C",
"]. c #DAAA5D",
"[. c #D2A557",
"{. c #C29C63",
"}. c #CAA466",
"|. c #DCAB63",
" X c #D8A966",
".X c #DDB36A",
"XX c #DCB473",
"oX c #D8B679",
"OX c #C3AB79",
"+X c #E4AC68",
"@X c #E4B46C",
"#X c #EABA6E",
"$X c #E6B469",
"%X c #ECBA72",
"&X c #E5B977",
"*X c #F3BD7C",
"=X c #F2BB76",
"-X c #E09F56",
";X c #E8C27D",
":X c #F8C47D",
">X c #9A7A82",
",X c #878786",
"<X c #948F88",
"1X c #BF8B81",
"2X c #B19882",
"3X c #B8A999",
"4X c #B3A998",
"5X c #B5AEA4",
"6X c #C99788",
"7X c #D8929D",
"8X c #D9B984",
"9X c #D3AC95",
"0X c #D896AA",
"qX c #D1B2AB",
"wX c #E2B1B4",
"eX c #F6BF80",
"rX c #DFC38A",
"tX c #E7C788",
"yX c #F5C282",
"uX c #F9C787",
"iX c #E7CC93",
"pX c #F5CF92",
"aX c #EBD194",
"sX c #EED499",
"dX c #F9D598",
"fX c #F6D18F",
"gX c #CDC5BA",
"hX c #D1C7B9",
"jX c #EEC6B4",
"kX c #F7E2A4",
"lX c #ECBCC7",
"zX c #DDB7C3",
"xX c #DCD4CB",
"cX c #D1CBC1",
"vX c #FDC9C9",
"bX c #FFD7CC",
"nX c #E8CFD4",
"mX c #E7E1D9",
"MX c gray99",
/* pixels */
"                      MX4XZ e.xX                  f.p _                                                                         ",
"                        D s.r.g hX              ) Z X.y                                                                         ",
"                        { d.9Xa.g             ( s w.w.{ g.                                                                      ",
"                      xXD L.9XwXx (         4Xu r.h.d.o.(                                                                       ",
"                      mXb 6XjX9Xr.< cXcX    y e.j.6Xj.;.~                                                                       ",
"                        z 9XvX6XU.q I Z.m.M.z 6XbXwX6X$.(                                                                       ",
"                        o.6XlXOXd.v (.$X$X].r bXvX6X6XX.y.                                                                      ",
"                        y.j.lXr.%.7.]..X].].F 6XvXOX>XX.^                                                                       ",
"                        <Xw.L.{ 3.;..X|.].`.|.v vXj.d.X.~                                                                       ",
"                        S.i { D 5.i.a.$X].]..X4.7Xj.X. .e.                                                                      ",
"                        g Z i - G.d.y >.].&X.X[.=.o. .-.S.                                                                      ",
"                        y t 5 ^ OXG X * K A.XX^.2.D #.%.y.                                                                      ",
"                        y p g 9X*.C = = C =./.(.Y.Z $.&.e.                                                                      ",
"                        g C jX^ u ;.i G >.W..XQ.T.2.#. .D                                                                       ",
"                        ; 9X( $ u I M.C.}.XX XR.N.3.#.|  .                                                                      ",
"                      W <X` 8 4 6 p I C. X|.W.l.2.$.O.| ;.              B 4 = 4                                                 ",
"                      % 9 8 8 8 5 h H m.M.).Q.4.2.$.#. .$.e.      T 7 R E N B 6 : ;                                             ",
"                      8 % % % % 4 y ;.q - * -.8.1.$.#.| } {   g.% / ' / B 7 ; : , 3 2                                           ",
"                        . . . o * u a d d S Q.k.$.X.X.| } s = 8 ,X' W B h > ; : , , 2 e                                         ",
"                        T Y Y Y Y Y f f a !.R.k.$.} X.X.{ 0 R ,X' / T 7 = & ; : , , 3 e j                                       ",
"                        >XnXzX0X7Xf f y R.Q.k.4.X.{ X.| s 0 N ` / T 4 @ # & ; : , , 3 e j j                                     ",
"                        >XzX0X0X>X- c (.(.Y.8.1.X.{ { b t 0 y / 8 % X @ # & ; : , , 2 2 2 j n                                   ",
"                        ! nXzXzXZ.-X'.(.Q.N.4.<.X.b b x s 0 < & . X @ @ # & ; : , , 2 e e k P                                   ",
"                        ! f.9X8XR.Q.W.B.N.6.1.X.{ $. .{ s 0 q * X X @ @ # & ; : , 2 e w j l P P                                 ",
"                          5X{.kX}.s.s.a.1.$.X.1.s.s.1.A s 0 < - @ . O @ # & & : , l j e e S P ,.^                               ",
"                            U.dXdX}.:.o.;.s.(.(.R.s.<.v t 0 < : O . X @ # & ; , r n H c l P +.>.H                               ",
"                            u.dXdXpX%X+X+X+X)./.N.6.$.] s 0 < - O . X @ # # , p c H @.S n P +.>.P                               ",
"                            d.uXpXpX&X%X+X'.).R.N.<.[ ] b 0 < : O . O @ # # u c m } +.k n @.,.>.I                               ",
"                            U.*XuXpX*X@X X|.).Q.0.$.[ ] b t < * + . O @ # y c S ..;.n n H +.>.5.y.                              ",
"                            {.eXyXpXyX@X+X'.Q.8.<.$.[ ] b t - x D X O @ 6 l S F #.-.u m P +.:.5.i.                              ",
"                            J.uX*X;XtX$X'.Q.Y.6.q.&.[ ] b t x X.{ i X > l V F #.2.H l H +.,.:.5.P.                              ",
"                            H.uXyX$X&X XR.Y.9.6.q.$.[ ] s ] 7.| F D * p Z F =.5.V.j n P +.>.2.2.P.                              ",
"                            U.uX:X+X+X#X!.R.k.6.<.&.[ ] [ ~.x...D ..p C F ;.a.m.6 e H @.;.:.2.%.S.                              ",
"                            Z.eX*X=Xc.|. XY.k.6.<.&.$.7.~.E.E...D ..x G t.C.a.1 F.u P +.:.1.q.<.*.                              ",
"                            i.eX*X*X).c.|.).k.7.7.c.~.c.c.c.T.#.A { K d.H.t.k 3   u @.:.5.q.%.&.N 4X                            ",
"                            2X&X*X*X*X+X].|.|.~.c.c.E.E.c.c.T.1.D } G.J.=.k k e cXQ @.:.6.0.%.&.e.4 `                           ",
"                              {.=X XQ.~.'.'. X+X~.c.c.c.T.x.T.6.Z =.I.H n n n k D.5XS 2.7.7.<.$.;.R . 8                         ",
"                              Z.%X+Xx.s.T.'. X}.=X).c.c.x.x.x.7.Z @.P U U U U U J   ^ 4.7.7.6.#.:.W 7 . . T                     ",
"                              Z.eX+Xx.x.9.Q. X/.}.yX+XY.x.x.x.9.Z | n b.,.@.@.@.l   hX*.T.7.7.<.-.J / 8 . . %                   ",
"                              C.eX+Xx.x.9.7.W./.C.Z.&XtXY.x.9.x.v  .n I b.:.,.,.P 3X  i.B.Y.7.0.&.J h $ . .                     ",
"                              v.eX+XT.x.k.x.3.1.;.A Z ;X`.9.9.9.Z  .S.^ M.b.z.b.,.D.  xX=.).7.0.-.4 . . 9                       ",
"                              u.eX+XT.x.k.x.X.f.C u ~ H.@X7.7.9.Z } D.y.A.V.z.z.@.3X    e.`.7.0.B.J ,X                          ",
"                              u.eX%XT.k.9.Y.{       mXm.&X7.8.8.v ..y.t..XV.V.B...    mXt.).7.9.}.S.                            ",
"                              u.yX=XY.9.9.9.e.        t.tXk.6.8.v F K OX;X(.Q.Y.v.    cXn.`.7./.H.2X                            ",
"                              u.:X%XR.7.9.1.P.        t.;XY.6.6.v D e.aX;X^.(.:.5X    5XA.`.W.XXZ.                              ",
"                              v.:X%XQ.8.8.X.qX        P.XX^.3.3.Z v OXaX;XQ.Q...      2X}.XXXX&X                                ",
"                              S.=X%X].6.8...          3X{..X3.3.x n.kXaX;XQ.Y.y.      y.oXoX&XoX                                ",
"                              K.%X#X'.6.6.G           gXA.@X4.3.x A.kXaXtX^.:.g.    5Xv.8XoXrXtX                                ",
"                              2X.X%X^.3.4.D           hXA.@XB.2.c J.kXiXaXA.K `   <X( oXtXrXtXrX                                ",
"                              4X X#X!.3.3.A             C.@XB.<.z 8XsXoXA.=.J `   D.OXiXtXiXiXsX                                ",
"                                _.@X[.q.3.Z             n.#XV.%.x e.I H C J <X    S.sXaXiXaXaXiX                                ",
"                                /.$X[.2.q.Z             b.$X!.%.v c <X<X          v.rXrXiXaXrX                                  ",
"                                A.$X[.3.1.V             t.#X^.z.D z               ( n.n.A.t.                                    ",
"                                M.$X[.6.<.V             u.#X^.B.#.i                 _ J N N                                     ",
"                                m..X^.8.$.x             u.@X_.W.$.i                                                             ",
"                                C.|.^.B.#.C             u.@X[.W.2.i                                                             ",
"                              S. X X_.V.$.L             C.$X_.!.M.p                                                             ",
"                            P.}.*XXX}._.M.L             _.;X]._.W.M                                                             ",
"                            J.dXtX8XoXoXA.J           v.tX;X@X X}.K                                                             ",
"                            J.pXiXiX8XoXo.Q         v.yXuXuXtX8XoX*.                                                            ",
"                            ^ t.r.t.=.C N           v.:XfXdXsXiX8XC                                                             ",
"                              / Q E E _               ;.m.H.m.>...                                                              ",
"                                                        M i p r h                                                               ",
"                                                                                                                                "
};
