/* XPM */
static char *result[] = {
/* columns rows colors chars-per-pixel */
"64 64 133 2 ",
"   c #7C5465",
".  c #7A5963",
"X  c #5E7E68",
"o  c #6F6769",
"O  c #686E69",
"+  c #677067",
"@  c #617F64",
"#  c #797D65",
"$  c #9E315F",
"%  c #A53C5E",
"&  c #933261",
"*  c #9E3362",
"=  c #913B61",
"-  c #AC3A64",
";  c #85465E",
":  c #8A465F",
">  c #844A5D",
",  c #8C4A5E",
"<  c #944D5F",
"1  c #83535E",
"2  c #99525E",
"3  c #AA4E5F",
"4  c #A2565C",
"5  c #AC565E",
"6  c #AC5B5F",
"7  c #BD575D",
"8  c #B65D5B",
"9  c #BD5C5B",
"0  c #AD665D",
"q  c #AF685D",
"w  c #B5635D",
"e  c #BA635E",
"r  c #B36B5B",
"t  c #B9685D",
"y  c #BE735A",
"u  c #864562",
"i  c #8A4563",
"p  c #834D63",
"a  c #8C4A62",
"s  c #924663",
"d  c #944963",
"f  c #9B4D63",
"g  c #805164",
"h  c #8C5663",
"j  c #9A5161",
"k  c #A44C65",
"l  c #AD4B65",
"z  c #B14363",
"x  c #B94564",
"c  c #B44B63",
"v  c #BC4D66",
"b  c #A45162",
"n  c #AB5563",
"m  c #AD5962",
"M  c #B35463",
"N  c #B15963",
"B  c #BB5E62",
"V  c #927261",
"C  c #AC6260",
"Z  c #B56161",
"A  c #BD6162",
"S  c #C0575C",
"D  c #CA5C5F",
"F  c #C5655E",
"G  c #C36A5D",
"H  c #C86D5F",
"J  c #D46D5E",
"K  c #C57E57",
"L  c #C3735C",
"P  c #CA765B",
"I  c #C67C5A",
"U  c #CD7A5B",
"Y  c #D3765E",
"T  c #DC745E",
"R  c #D67D5E",
"E  c #DC7B5C",
"W  c #E1765E",
"Q  c #E27A5E",
"!  c #C54B66",
"~  c #C44B68",
"^  c #C35365",
"/  c #D25E64",
"(  c #C46262",
")  c #CC6663",
"_  c #C66A62",
"`  c #D36B62",
"'  c #DE6E62",
"]  c #D67460",
"[  c #DE7161",
"{  c #E06F61",
"}  c #E07161",
"|  c #5D8567",
" . c #5D806B",
".. c #578A6B",
"X. c #4D9B67",
"o. c #4E956B",
"O. c #4B9B69",
"+. c #51936A",
"@. c #778065",
"#. c #769966",
"$. c #5CA56B",
"%. c #6BAE68",
"&. c #7AB364",
"*. c #958362",
"=. c #B89060",
"-. c #D28857",
";. c #DB8D56",
":. c #D38358",
">. c #DE845B",
",. c #D58A59",
"<. c #DC8958",
"1. c #E38B57",
"2. c #EA8C57",
"3. c #E5845B",
"4. c #E8865C",
"5. c #E38B59",
"6. c #EA8C59",
"7. c #E49356",
"8. c #EB9456",
"9. c #EA9955",
"0. c #ED9359",
"q. c #F19A55",
"w. c #F7A84F",
"e. c #FCAE4F",
"r. c #FFB14F",
"t. c #EFA254",
"y. c #F4A453",
"u. c #F8A653",
"i. c #F7A952",
"p. c #FBAC51",
"a. c #FEB150",
"s. c #9EC360",
"d. c None",
/* pixels */
"d.d.d.d.d.d.d.d.d.d.d.d.d.d.d.d.d.d.d.d.d.d.d.d.d.d.d.d.d.d.d.d.d.d.d.d.d.d.d.d.d.d.d.d.d.d.d.d.d.d.d.d.d.d.d.d.d.d.d.d.d.d.d.d.",
"d.d.d.d.d.d.d.d.d.d.d.d.d.d.d.d.d.d.d.d.d.d.d.d.d.d.d.d.d.d.d.d.d.d.d.d.d.d.d.d.d.d.d.d.d.d.d.d.d.d.d.d.d.d.d.d.d.d.d.d.d.d.d.d.",
"d.d.d.d.d.d.d.d.d.d.d.d.d.d.d.d.d.d.d.d.d.d.d.d.d.d.d.d.d.d.d.d.d.d.d.d.d.d.d.d.d.d.d.d.d.d.d.d.d.d.d.d.d.d.d.d.d.d.d.d.d.d.d.d.",
"d.d.d.d.d.d.d.d.d.d.d.d.d.d.d.d.d.d.d.d.d.d.d.d.d.d.d.d.d.d.d.d.d.d.d.d.d.d.d.d.d.d.d.d.d.d.d.d.d.d.d.d.d.d.d.d.d.d.d.d.d.d.d.d.",
"d.d.d.d.d.d.d.d.d.d.d.d.d.d.d.d.d.d.d.d.d.d.d.d.d.d.d.d.d.d.d.d.d.d.d.d.d.d.d.d.d.d.d.d.d.d.d.d.d.d.d.d.d.d.d.d.d.d.d.d.d.d.d.d.",
"d.d.d.d.d.d.d.d.d.d.d.d.d.d.d.d.d.d.d.d.d.d.d.d.d.d.d.d.d.d.d.d.d.d.d.d.d.d.d.d.d.d.d.d.d.d.d.d.d.d.d.d.d.d.d.d.d.d.d.d.d.d.d.d.",
"d.d.d.d.d.d.d.d.d.d.d.d.d.d.d.d.d.d.d.d.d.d.d.d.d.d.d.d.d.d.d.d.d.d.d.d.d.d.d.d.d.d.d.d.d.d.d.d.d.d.d.d.d.d.d.d.d.d.d.d.d.d.d.d.",
"d.d.d.d.d.d.d.d.d.d.d.d.d.d.d.d.d.d.d.d.d.d.d.d.d.d.d.d.d.d.d.d.d.d.d.d.d.d.d.d.d.d.d.d.d.d.d.d.d.d.d.d.d.d.d.d.d.d.d.d.d.d.d.d.",
"d.d.d.d.d.d.d.d.d.d.d.d.d.d.d.d.d.d.d.d.d.d.d.d.d.d.d.d.d.d.d.d.d.d.d.d.d.d.d.d.d.d.d.d.d.d.d.d.d.d.d.d.d.d.d.d.d.d.d.d.d.d.d.d.",
"d.d.d.d.d.d.d.d.d.d.d.d.d.d.d.d.d.d.d.d.d.d.d.d.d.d.d.d.d.d.d.d.d.d.d.d.d.d.d.d.d.d.d.d.d.d.d.d.d.d.d.d.d.d.d.d.d.d.d.d.d.d.d.d.",
"d.d.d.d.d.d.d.d.d.d.d.d.d.d.d.d.d.d.d.d.d.d.d.d.d.d.d.d.d.d.d.d.d.d.d.d.d.d.d.d.d.d.d.d.d.d.d.d.d.d.d.d.d.d.d.d.d.d.d.d.d.d.d.d.",
"d.d.d.d.d.d.d.d.d.d.d.d.d.d.d.d.d.d.d.d.d.d.d.d.d.d.d.d.d.d.d.d.d.d.d.d.d.d.d.d.d.d.d.d.d.d.d.d.d.d.d.d.d.d.d.d.d.d.d.d.d.d.d.d.",
"d.d.d.d.d.d.d.d.d.d.d.d.d.d.d.d.d.d.d.d.d.d.d.d.d.d.d.d.d.d.d.d.d.d.d.d.d.d.d.d.d.d.d.d.d.d.d.d.d.d.d.d.d.d.d.d.d.d.d.d.d.d.d.d.",
"d.d.d.d.d.d.d.d.d.d.d.d.d.d.d.d.d.d.d.d.d.d.d.d.d.d.d.d.d.d.d.d.d.d.d.d.d.d.d.d.d.d.d.d.d.d.d.d.d.d.d.d.d.d.d.d.d.d.d.d.d.d.d.d.",
"d.d.d.d.d.d.d.d.d.d.d.d.d.d.d.d.d.d.d.d.d.d.d.d.d.d.d.d.d.d.d.d.d.d.d.d.d.d.d.d.d.d.d.d.d.d.d.d.d.d.d.d.d.d.d.d.d.d.d.d.d.d.d.d.",
"d.d.d.d.d.d.d.d.d.d.d.d.d.d.d.d.d.d.; > d.d.d.d.d.d.d.d.d.d.d.d.u u d.d.d.d.d.d.d.d.d.d.d.d.d.d.d.d.d.d.d.d.d.d.d.d.d.d.d.d.d.d.",
"d.d.d.d.d.d.d.d.d.d.d.d.d.d.d.d.d., r j > d.d.d.d.d.d.d.d.d.d.a 0 m i d.d.d.d.d.d.d.d.d.d.d.d.d.d.d.d.d.d.d.d.d.d.d.d.d.d.d.d.d.",
"d.d.d.d.d.d.d.d.d.d.d.d.d.d.d.d.a l 5.,.< d.d.d.d.d.d.d.d.d., I 9.8 $ : d.d.d.d.d.d.d.d.d.d.d.d.d.d.d.d.d.d.d.d.d.d.d.d.d.d.d.d.",
"d.d.d.d.d.d.d.d.d.d.d.d.d.d.d.: k ~ J E b u d.d.d.d.d.d.u d K y.8 * - s ; d.d.d.d.d.d.d.d.d.d.d.d.d.d.d.d.d.d.d.d.d.d.d.d.d.d.d.",
"d.d.d.d.d.d.d.d.d.d.d.d.d.d.d.d ~ / ' ' ] m 2 2 2 2 < d b _ y.1.% - ! c a d.d.d.d.d.d.d.d.d.d.d.d.d.d.d.d.d.d.d.d.d.d.d.d.d.d.d.",
"d.d.d.d.d.d.d.d.d.d.d.d.d.d.a M ' } 3.0.u.t.t.i.y.y.9.<.3.Q 3.Q D ^ ! v s d.d.d.d.d.d.d.d.d.d.d.d.d.d.d.d.d.d.d.d.d.d.d.d.d.d.d.",
"d.d.d.d.d.d.d.d.d.d.d.d.d.d.a ( 4.q.p.a.r.r.a.a.r.r.r.r.e.y.2.W ' ' / v s d.d.d.d.d.d.d.d.d.d.d.d.d.d.d.d.d.d.d.d.d.d.d.d.d.d.d.",
"d.d.d.d.d.d.d.d.d.d.d.d.d.u b 3.u.r.r.r.p.y.y.a.r.r.r.r.r.r.e.8.W { { ^ i d.d.d.d.d.d.d.d.d.d.d.d.d.d.d.d.d.d.d.d.d.d.d.d.d.d.d.",
"d.d.d.d.d.d.d.d.d.d.d.d.d.; m >.p.r.p.9.0.E E y.p.e.r.r.r.e.r.w.W { { ) s d.d.d.d.d.d.d.d.d.d.d.d.d.d.d.d.d.d.d.d.d.d.d.d.d.d.d.",
"d.d.d.d.d.d.d.d.d.d.d.d.d.< R U L -.U 5 ` { } 3.R u.r.e.<.9.r.e.3.' [ ` d d.d.d.d.d.d.d.d.d.d.d.; : u d.d.d.d.d.d.d.d.d.d.d.d.d.",
"d.d.d.d.d.d.d.d.d.d.d.d.d.d >.q.t 2 2 e ` ' ' ` 2 6 r 0 w 9.r.r.q.{ [ ) d d.d.d.d.d.d.d.d.d.d.> 0 -.Z a d.d.d.d.d.d.d.d.d.d.d.d.",
"d.d.d.d.d.d.d.d.d.d.d.d.d.j t.r.i.y.y.y.J x 7 4.U r r r 7.e.r.r.q.' ' n i d.d.d.d.d.d.d.d.d.d.2 9.r.8.b > d.d.d.d.d.d.d.d.d.d.d.",
"d.d.d.d.d.d.d.d.d.d.d.d.d.f 5.u.r.r.e.r.y.8 <.a.r.a.p.p.r.r.r.u.3.' ^ d i d.d.d.d.d.d.d.d.d.d.w i.r.q.b ; d.d.d.d.d.d.d.d.d.d.d.",
"d.d.d.d.d.d.d.d.d.d.d.d.d.d ] 2.e.e.7.-.U 3 G -.,.7.e.r.u.q.6.[ ( b s f i d.d.d.d.d.d.d.d.d.: P a.a.2.b u d.d.d.d.d.d.d.d.d.d.d.",
"d.d.d.d.d.d.d.d.d.d.d.d.d.f 5.w.r.r.t.5 & - z z e y.r.r.u.4.W T ( ( A A s u ; u ; d.d.d.d.d.j 9.r.y.] b ; d.d.d.d.d.d.d.d.d.d.d.",
"d.d.d.d.d.d.d.d.d.d.d.d.d.< >.w.r.r.r.9 & x ! ! T r.r.r.r.w.9.Q ' ) N s i f n n f ; u d.d.i L u.<.H N i ; d.d.d.d.d.d.d.d.d.d.d.",
"d.d.d.d.d.d.d.d.d.d.d.d.d., t y.r.r.a.<.x ! ! ! E r.r.e.r.r.8.Q [ ( d i f ` [ [ ` B f i i A q.p.>.4 s i d.d.d.d.d.d.d.d.d.d.d.d.",
"d.d.d.d.d.d.d.d.d.d.d.d.d.d., :.a.r.r.a.8.T T T y.r.r.r.r.r.p.0.} ' n i B } [ [ } { ( d f ` 4.;.W ` n u d.d.d.d.d.d.d.d.d.d.d.d.",
"d.d.d.d.d.d.d.d.d.d.d.d.d.d.d.4 <.e.r.r.r.p.a.r.r.e.r.r.r.e.q.T A b < e [ [ ' { { ' { ( i B } N b b i d.d.d.d.d.d.d.d.d.d.d.d.d.",
"d.d.d.d.d.d.d.d.d.d.d.d.d.d.d.d.< y y.r.r.r.r.r.r.r.r.y.9.4.T F n r ;.u.q.Q { ' ' { } ` k d B N i i d.d.d.d.d.d.d.d.d.d.d.d.d.d.",
"d.d.d.d.d.d.d.d.d.d.d.d.d.d.d.d.d.: w q.a.r.a.r.r.r.r.y.q.q.q.q.q.i.a.a.r.6.' } { { { { A i u ; d.d.d.d.d.d.d.d.d.d.d.d.d.d.d.d.",
"d.d.d.d.d.d.d.d.d.d.d.d.d.d.d.d.d.d.a ,.r.r.r.r.r.r.r.r.r.r.r.r.r.r.r.r.r.y.Q { { ' { } B i d.d.d.d.d.d.d.d.d.d.d.d.d.d.d.d.d.d.",
"d.d.d.d.d.d.d.d.d.d.d.d.d.d.d.d.d.d.i P p.r.r.r.e.r.r.r.r.r.r.r.r.r.e.r.r.w.W { ' } { } A i d.d.d.d.d.d.d.d.d.d.d.d.d.d.d.d.d.d.",
"d.d.d.d.d.d.d.d.d.d.d.d.d.d.d.d.d.d.d.w i.r.r.r.e.r.r.r.r.r.r.y.e.r.r.r.r.u.W T { ' [ { B i d.d.d.d.d.d.d.d.d.d.d.d.d.d.d.d.d.d.",
"d.d.d.d.d.d.d.d.d.d.d.d.d.d.d.d.d.d.d.2 y.e.q.r.r.r.r.r.r.r.p.1.u.r.r.e.r.8.{ { [ { [ [ N i d.d.d.d.d.d.d.d.d.d.d.d.d.d.d.d.d.d.",
"d.d.d.d.d.d.d.d.d.d.d.d.d.d.d.d.d.d.d.2 t.e.9.y.r.a.r.r.r.r.;.F 4.u.u.6.u.] [ [ ' ' [ ( s i d.d.d.d.d.d.d.d.d.d.d.d.d.d.d.d.d.d.",
"d.d.d.d.d.d.d.d.d.d.d.d.d.d.d.d.d.d.d.j 5.a.u.8.3.7.e.a.e.8.G k J 3.Q W [ m ` [ ) n b d i u d.d.d.d.d.d.d.d.d.d.d.d.d.d.d.d.d.d.",
"d.d.d.d.d.d.d.d.d.d.d.d.d.d.d.d.d.d.d.a H y.r.u.G y a.a.y.6.B i ( ' ' ) n d ( { ` B f i i u d.d.d.d.d.d.d.d.d.d.d.d.d.d.d.d.d.d.",
"d.d.d.d.d.d.d.d.d.d.d.d.d.d.d.d.d.d.d.d.6 9.u.0.A d 5.p.i.<.b i d b b d k f n { { ' ( f i d.d.d.d.d.d.d.d.d.d.d.d.d.d.d.d.d.d.d.",
"d.d.d.d.d.d.d.d.d.d.d.d.d.d.d.d.d.d.d.d.a 6 T W B i ( } ` j i i V h s m ` b f ` { ( f i h d.d.d.d.d.d.d.d.d.d.d.d.d.d.d.d.d.d.d.",
"d.d.d.d.d.d.d.d.d.d.d.d.d.d.d.d.d.d.d.d.> b ` } B i n ' } B a *.s.V b [ ' b i B [ ] A d V &.d.d.d.d.d.d.d.d.d.d.d.d.d.d.d.d.d.d.",
"d.d.d.d.d.d.d.d.d.d.d.d.d.d.d.d.d.d.d.X.@   b B d i i N ( b g #.%.# i m N i i d A =.C i @.$.O.d.d.d.d.d.d.d.d.d.d.d.d.d.d.d.d.d.",
"d.d.d.d.d.d.d.d.d.d.d.d.d.d.d.d.d.d.O.O.X.X . > p O O p g .  .O.O.o.+ >   . o g p d.p O O.O.O.O.d.d.d.d.d.d.d.d.d.d.d.d.d.d.d.d.",
"d.d.d.d.d.d.d.d.d.d.d.d.d.d.d.d.d.d.d.d.d.d.d.d.d.o.o.d.d...d.d.d.d.+.d.d...+.| d.d.d.d.d.d.d.X.d.d.d.d.d.d.d.d.d.d.d.d.d.d.d.d.",
"d.d.d.d.d.d.d.d.d.d.d.d.d.d.d.d.d.d.d.d.d.d.d.d.d.d.d.d.d.d.d.d.d.d.d.d.d.d.d.d.d.d.d.d.d.d.d.d.d.d.d.d.d.d.d.d.d.d.d.d.d.d.d.d.",
"d.d.d.d.d.d.d.d.d.d.d.d.d.d.d.d.d.d.d.d.d.d.d.d.d.d.d.d.d.d.d.d.d.d.d.d.d.d.d.d.d.d.d.d.d.d.d.d.d.d.d.d.d.d.d.d.d.d.d.d.d.d.d.d.",
"d.d.d.d.d.d.d.d.d.d.d.d.d.d.d.d.d.d.d.d.d.d.d.d.d.d.d.d.d.d.d.d.d.d.d.d.d.d.d.d.d.d.d.d.d.d.d.d.d.d.d.d.d.d.d.d.d.d.d.d.d.d.d.d.",
"d.d.d.d.d.d.d.d.d.d.d.d.d.d.d.d.d.d.d.d.d.d.d.d.d.d.d.d.d.d.d.d.d.d.d.d.d.d.d.d.d.d.d.d.d.d.d.d.d.d.d.d.d.d.d.d.d.d.d.d.d.d.d.d.",
"d.d.d.d.d.d.d.d.d.d.d.d.d.d.d.d.d.d.d.d.d.d.d.d.d.d.d.d.d.d.d.d.d.d.d.d.d.d.d.d.d.d.d.d.d.d.d.d.d.d.d.d.d.d.d.d.d.d.d.d.d.d.d.d.",
"d.d.d.d.d.d.d.d.d.d.d.d.d.d.d.d.d.d.d.d.d.d.d.d.d.d.d.d.d.d.d.d.d.d.d.d.d.d.d.d.d.d.d.d.d.d.d.d.d.d.d.d.d.d.d.d.d.d.d.d.d.d.d.d.",
"d.d.d.d.d.d.d.d.d.d.d.d.d.d.d.d.d.d.d.d.d.d.d.d.d.d.d.d.d.d.d.d.d.d.d.d.d.d.d.d.d.d.d.d.d.d.d.d.d.d.d.d.d.d.d.d.d.d.d.d.d.d.d.d.",
"d.d.d.d.d.d.d.d.d.d.d.d.d.d.d.d.d.d.d.d.d.d.d.d.d.d.d.d.d.d.d.d.d.d.d.d.d.d.d.d.d.d.d.d.d.d.d.d.d.d.d.d.d.d.d.d.d.d.d.d.d.d.d.d.",
"d.d.d.d.d.d.d.d.d.d.d.d.d.d.d.d.d.d.d.d.d.d.d.d.d.d.d.d.d.d.d.d.d.d.d.d.d.d.d.d.d.d.d.d.d.d.d.d.d.d.d.d.d.d.d.d.d.d.d.d.d.d.d.d.",
"d.d.d.d.d.d.d.d.d.d.d.d.d.d.d.d.d.d.d.d.d.d.d.d.d.d.d.d.d.d.d.d.d.d.d.d.d.d.d.d.d.d.d.d.d.d.d.d.d.d.d.d.d.d.d.d.d.d.d.d.d.d.d.d.",
"d.d.d.d.d.d.d.d.d.d.d.d.d.d.d.d.d.d.d.d.d.d.d.d.d.d.d.d.d.d.d.d.d.d.d.d.d.d.d.d.d.d.d.d.d.d.d.d.d.d.d.d.d.d.d.d.d.d.d.d.d.d.d.d.",
"d.d.d.d.d.d.d.d.d.d.d.d.d.d.d.d.d.d.d.d.d.d.d.d.d.d.d.d.d.d.d.d.d.d.d.d.d.d.d.d.d.d.d.d.d.d.d.d.d.d.d.d.d.d.d.d.d.d.d.d.d.d.d.d.",
"d.d.d.d.d.d.d.d.d.d.d.d.d.d.d.d.d.d.d.d.d.d.d.d.d.d.d.d.d.d.d.d.d.d.d.d.d.d.d.d.d.d.d.d.d.d.d.d.d.d.d.d.d.d.d.d.d.d.d.d.d.d.d.d.",
"d.d.d.d.d.d.d.d.d.d.d.d.d.d.d.d.d.d.d.d.d.d.d.d.d.d.d.d.d.d.d.d.d.d.d.d.d.d.d.d.d.d.d.d.d.d.d.d.d.d.d.d.d.d.d.d.d.d.d.d.d.d.d.d.",
"d.d.d.d.d.d.d.d.d.d.d.d.d.d.d.d.d.d.d.d.d.d.d.d.d.d.d.d.d.d.d.d.d.d.d.d.d.d.d.d.d.d.d.d.d.d.d.d.d.d.d.d.d.d.d.d.d.d.d.d.d.d.d.d."
};
