/* XPM */
static char *_4768a8f09e44de2ea0d89ab4e3673bcioAVG2oQyVUDkDTh[] = {
/* columns rows colors chars-per-pixel */
"64 64 155 2 ",
"   c None",
".  c #452D1C",
"X  c #482E1D",
"o  c #532D1F",
"O  c #61281E",
"+  c #5C2D20",
"@  c #583C24",
"#  c #573D23",
"$  c #55373A",
"%  c #57393C",
"&  c #5A3C3E",
"*  c #543537",
"=  c #652C21",
"-  c #6D2D24",
";  c #6D2424",
":  c #7A2B25",
">  c #7E2626",
",  c #6D3024",
"<  c #613C25",
"1  c #723B28",
"2  c #664444",
"3  c #664948",
"4  c #6A4C4A",
"5  c #6D504E",
"6  c #785C57",
"7  c #872627",
"8  c #8C2628",
"9  c #812A26",
"0  c #9C262A",
"q  c #9F282A",
"w  c #A6262B",
"e  c #AA272C",
"r  c #A3282B",
"t  c #AC292D",
"y  c #B2292E",
"u  c #BA2B2F",
"i  c #B72D30",
"p  c #BA2E31",
"a  c #AB3434",
"s  c #AB3538",
"d  c #AB3D3D",
"f  c #B03631",
"g  c #BD3234",
"h  c #C82D2F",
"j  c #C53336",
"k  c #CA3537",
"l  c #C63937",
"z  c #CA3739",
"x  c #CB3A3A",
"c  c #9B5937",
"v  c #A04833",
"b  c #A45F3B",
"n  c #BF5E3F",
"m  c #996A3C",
"M  c #94703C",
"N  c #AD5F59",
"B  c #BA5450",
"V  c #B3605A",
"C  c #8E7976",
"Z  c #8F7A78",
"A  c #AE6C63",
"S  c #AF776D",
"D  c #BC7C71",
"F  c #C65C40",
"G  c #C46742",
"H  c #C56D44",
"J  c #CA7C49",
"K  c #CE7F70",
"L  c #A38E73",
"P  c #A88E73",
"I  c #B28D75",
"U  c #D0884D",
"Y  c #DC9152",
"T  c #CFA454",
"R  c #D1A455",
"E  c #D9A456",
"W  c #E0AA59",
"Q  c #E3B65D",
"!  c #E4B95E",
"~  c #C18076",
"^  c #D48A7A",
"/  c #9B8882",
"(  c #B29C8B",
")  c #BD9E8E",
"_  c #AC9D98",
"`  c #B39E97",
"'  c #B1A08E",
"]  c #AFAD98",
"[  c #B1A390",
"{  c #B0AC97",
"}  c #BAAD97",
"|  c #B2AF9A",
" . c #B2B19C",
".. c #B5A8A2",
"X. c #B7B5A0",
"o. c #B9B6A2",
"O. c #BAB9A5",
"+. c #BEB1A9",
"@. c #BFBCA8",
"#. c #DA8F82",
"$. c #CF9E89",
"%. c #DD9389",
"&. c #EF9480",
"*. c #FF9D87",
"=. c #F79F8B",
"-. c #FF9E88",
";. c #E59A95",
":. c #F7A08A",
">. c #FFA18B",
",. c #E4A49D",
"<. c #FFA792",
"1. c #F7AA95",
"2. c #FFA994",
"3. c #EFB99E",
"4. c #C1B5A1",
"5. c #CEBAA0",
"6. c #D4BFA4",
"7. c #C7BDB5",
"8. c #DABEB3",
"9. c #E8A8A2",
"0. c #E7B2A3",
"q. c #FFC7A9",
"w. c #FFC9AB",
"e. c #FFCDBC",
"r. c #EDDBB9",
"t. c #FFD1BF",
"y. c #F1DEBC",
"u. c #D9D7C6",
"i. c #DAD8C7",
"p. c #DDDCCB",
"a. c #EED0C6",
"s. c #FFD5C3",
"d. c #F5D6CC",
"f. c #FFD9C8",
"g. c #FCEAC6",
"h. c #FFEEC8",
"j. c #F3E6CB",
"k. c #FFF2CB",
"l. c #ECEBDC",
"z. c #FFE5D6",
"x. c #F7EFD9",
"c. c #FFF8D9",
"v. c #FAEBE0",
"b. c #F4F3E5",
"n. c #FFF4E7",
"m. c #FFFCE3",
"M. c #F7F7E9",
"N. c #FEF7E9",
"B. c #F7F9EB",
"V. c #FBFAEC",
"C. c #FFFFF4",
"Z. c #FFFFF6",
"A. c #FFFFF7",
"S. c #FFFFF2",
"D. c #FFFFF8",
/* pixels */
"                                                                                                                                ",
"                                                                                                                                ",
"                                                                                                                                ",
"                                                                                                                                ",
"                                                          S.S.                                                                  ",
"                                                        S.S.S.S.S.S.S.                                                          ",
"                                                        S.S.S.S.S.S.S.                                                          ",
"                                                  S.S.S.              S.S.S.S.                                                  ",
"                                                  S.S.S.              S.S.S.S.                                                  ",
"                                                  S.                  S.S.S.S.                                                  ",
"                                                                      S.S.S.S.                                                  ",
"                                                                      S.S.S.S.                                                  ",
"                                                                | |  .                                                          ",
"                                                                ] | |                                                           ",
"                                                  S.          V.p.p.p.V.  S.                                                    ",
"                                                  S.S.S.S.S.S.S.Z.S.Z.S.S.S.S.                                                  ",
"                                                V.S.S.S.S.S.S.S.S.S.S.S.S.S.S.    S.                                            ",
"                                          S.S.S.S.S.S.S.S.S.S.S.S.S.S.S.S.S.S.S.S.S.                                            ",
"                                          S.S.S.S.S.S.S.S.S.S.S.S.S.S.S.S.S.S.S.S.S.                                            ",
"                                  S.S.S.S.S.S.S.S.S.S.S.S.S.S.S.S.S.S.S.S.S.S.S.S.S.S.S.S.S.                                    ",
"                                  S.S.S.S.S.S.S.S.S.S.S.S.S.S.Z.S.Z.S.S.S.S.S.S.S.S.S.S.S.S.                                    ",
"                                  S.S.S.S.S.S.S.S.S.S.S.S.S.S.V.p.u.p.V.S.S.S.S.S.S.S.S.S.S.                                    ",
"                                  S.S.S.S.S.S.S.S.Z.S.S.S.S.S.M. .| o.B.S.S.S.S.S.S.S.S.S.S.                                    ",
"                                  S.S.S.S.S.S.S.N.n.N.N.V.S.S.B.4.} 4.B.S.S.S.S.S.S.S.S.S.S.                                    ",
"                                  S.S.S.S.S.S.Z.f.<.2.2.z.S.S.N.1.:.1.N.Z.S.S.S.S.S.S.S.S.S.                                    ",
"                                  S.S.S.S.S.S.Z.s.*.-.>.z.Z.Z.N.2.-.2.N.Z.Z.Z.S.S.S.S.S.S.S.                                    ",
"                              S.S.S.S.S.S.S.S.Z.8.A A A 3.e.e.e.>.-.:.` _ _ 7.S.S.S.S.S.S.S.S.  S.                              ",
"                            S.S.S.S.S.S.S.S.S.D...$ & & ~ *.*.*.-.-.&.2 % * C S.S.S.S.S.S.S.S.S.S.S.                            ",
"                            S.S.S.S.S.S.S.S.S.Z...$ & & $.w.q.q.q.q.3.3 & % Z S.S.S.S.S.S.S.S.S.S.S.                            ",
"                            S.S.S.S.S.S.S.S.S.Z...$ & & 5.k.h.k.k.h.y.3 & $ Z S.S.S.S.S.S.S.S.S.S.S.                            ",
"                            S.S.S.S.S.S.S.S.S.Z.+.3 5 5 6.k.h.h.h.h.y.6 4 4 / S.S.S.S.S.S.S.S.S.S.S.                            ",
"                            S.S.S.S.S.S.S.S.S.S.x.r.r.r.g.h.h.h.h.h.h.r.r.r.j.S.S.S.S.S.S.S.S.S.S.S.                            ",
"                            S.Z.S.S.S.S.S.Z.Z.Z.m.k.h.h.k.k.k.k.k.k.h.k.k.k.c.Z.Z.Z.S.S.S.S.D.A.A.A.                            ",
"                            i.u.u.B.S.Z.v.;.;.;.%.^ ^ ^ P L L L L L P ^ ^ ^ #.;.;.;.d.S.S.S.a.u.u.u.                            ",
"                            | { | b.Z.Z.d.k j k u w e e O . . . . . X w e e y h j h 9.D.S.S.@.{ | |                             ",
"                            |  . .l.M.V.a.x k k j e e y - X o + o o o e e t i k j j 9.B.b.b.@.{ | |                             ",
"                      | | | | | | o.O.O.) k k k j j j j e q q q r r w j j j j k k k K O.@. . .| | | | | |                       ",
"                     .|  .| | | |  . . .) x k k j k k k y e e e e e e k k k k k j k D  . . . .| | | | |  .                      ",
"                    | | | | | | | S A A V k k k k k k k F H H H G H H x k k k k k k B A A A '  .|  .| | |                       ",
"                    | | |  . . .{ s e e y k z k k k k k Y ! ! Q Q Q W x k k k k k k u e e t (  . . .|  .|                       ",
"                    | | | | S A A a e e e p p p g k k k b M M M M M m l k z j p p g t e e a N A A S | |  .                      ",
"                     . .| { d e e e e e e e e e i k k k - . . . . . o g k k j w e e e e e e e w e d {  . .                      ",
"                    ( ' ' ( d e e e e e e e e e u k j j , . . X . . o g k k g e e e e e e e e e e d ( ' (                       ",
"                    s d s s e e e e e e e e e e t y t y = . . X . . + w t t e e e e e e e e e e e e s s s                       ",
"                    w e e e e e e e e e e e e e e e e e = . X X X X o r e e e e e e e e e e e e e e e e e                       ",
"                    e e e t e e e e e e e e e e e e e e = . . X X X o r e e e e e e e e e e e e e e e e w                       ",
"                    w e e e e e e e e e e e e e e e e e = . . X . X + r e e e e e e e e e e e e e e e e w                       ",
"                    e e e e e e e e e e e e e e a f f f 1 # @ @ # # @ a f f a e e e e e e e e e e e e e w                       ",
"                    e e e e e e e e e e e e e e B E E E R T T R T T T R E E J e e e e e e e e e e e e e w                       ",
"                    e e e e e e e e t w e e e e G Q Q Q Q Q Q Q Q Q Q Q ! ! U t e e e e e e e e e e e e w                       ",
"                          w e e t e t t e e e e v M M M M M M M M M M M M M c w e e e e e e e e e w 0 r                         ",
"                            e e w w t t t e t t > . . . . . . . . . . . . . = e e t e t t t e e e e                             ",
"                                0 9 : : : : : : O X . X X X X X X X X X X . + : : : : : : : 8 r e                               ",
"                                  . X . . . . . X X X X X X X X X X X . X X . . . . X . X .                                     ",
"                                  X X X . o + o X X . . . . . . X X . . X X . + o + X X . X                                     ",
"                                          0 q q 7                           ; q 0 q >                                           ",
"                                          e t e w                             e t e                                             ",
"                                          e e e w                             e e e                                             ",
"                                          e t e w                             e e e                                             ",
"                                          e w w r                             e w e                                             ",
"                                                                                                                                ",
"                                                                                                                                ",
"                                                                                                                                ",
"                                                                                                                                "
};
