/* XPM */
static char *_1a7a95728484aa3b9a7c0e577523a51gu6WaGehzXl5rl0d[] = {
/* columns rows colors chars-per-pixel */
"64 64 148 2 ",
"   c None",
".  c #3D291C",
"X  c #452D1D",
"o  c #492D1D",
"O  c #522D1F",
"+  c #593C24",
"@  c #57393C",
"#  c #5A3C3E",
"$  c #762A24",
"%  c #7A2B25",
"&  c #623D26",
"*  c #5C4330",
"=  c #634231",
"-  c #5C3F41",
";  c #664444",
":  c #6B4747",
">  c #664949",
",  c #6A4A49",
"<  c #794F4D",
"1  c #6D5252",
"2  c #795857",
"3  c #79605F",
"4  c #9D262A",
"5  c #9E282A",
"6  c #A2262B",
"7  c #AA272C",
"8  c #A2282B",
"9  c #AC292D",
"0  c #B12A2E",
"q  c #AD312F",
"w  c #B32E30",
"e  c #BA2E32",
"r  c #AC3333",
"t  c #AB3638",
"y  c #AC3B3B",
"u  c #B13533",
"i  c #B43E3E",
"p  c #BA3336",
"a  c #C63436",
"s  c #CA3537",
"d  c #CB3E39",
"f  c #95703D",
"g  c #C34239",
"h  c #CC433B",
"j  c #AD5C57",
"k  c #AE6C63",
"l  c #BE6D64",
"z  c #A8766C",
"x  c #BE7369",
"c  c #CD4846",
"v  c #D04A47",
"b  c #C26742",
"n  c #C46D44",
"m  c #C1655E",
"M  c #AF8578",
"N  c #AF8A7C",
"B  c #B08578",
"V  c #CD9B51",
"C  c #DA9C55",
"Z  c #CFA454",
"A  c #D0A555",
"S  c #DCA557",
"D  c #DDAA58",
"F  c #E2B65C",
"G  c #F6927F",
"H  c #AD9483",
"J  c #B29383",
"K  c #B49D89",
"L  c #B99989",
"P  c #B1A08E",
"I  c #AFAC98",
"U  c #B1A491",
"Y  c #B2AC97",
"T  c #B2AF9A",
"R  c #BAAD9B",
"E  c #B2B19C",
"W  c #B6B5A1",
"Q  c #B9B7A2",
"!  c #BBB9A4",
"~  c #ED9582",
"^  c #EF9C89",
"/  c #F29682",
"(  c #F59985",
")  c #FF9D87",
"_  c #F29F89",
"`  c #FE9F89",
"'  c #D8A791",
"]  c #D9A892",
"[  c #DCAE99",
"{  c #F3A18E",
"}  c #FFA48D",
"|  c #FFA691",
" . c #FFA992",
".. c #FFB09C",
"X. c #CEB0A4",
"o. c #C3BBA3",
"O. c #C0BDAA",
"+. c #C3C1AD",
"@. c #CAC7B5",
"#. c #CFC9B7",
"$. c #D3C1B1",
"%. c #FFCFBD",
"&. c #EBD9B5",
"*. c #ECD3B1",
"=. c #F5D8B7",
"-. c #F9DAB8",
";. c #F2E0BD",
":. c #D9D7C6",
">. c #D9D9C7",
",. c #DCD5CB",
"<. c #DBDBC9",
"1. c #ECCBC1",
"2. c #EDD0C7",
"3. c #ECD3C9",
"4. c #FFD3C2",
"5. c #F4D2C9",
"6. c #FDE6C2",
"7. c #FFECC7",
"8. c #FFEFC8",
"9. c #FFF2CB",
"0. c #EFE4D8",
"q. c #EEECDE",
"w. c #F1E0D4",
"e. c #F2E6D9",
"r. c #FBE7D9",
"t. c #F7ECDD",
"y. c #FFECDD",
"u. c #EFEEE0",
"i. c #F2EFE1",
"p. c #F2F1E4",
"a. c #FFF5E7",
"s. c #F7F6E8",
"d. c #FFF7EA",
"f. c #F7F9EB",
"g. c #FFF8EA",
"h. c #FCF8EA",
"j. c #FFFBEE",
"k. c #F9F9EB",
"l. c #FDFDF0",
"z. c #FEFEF1",
"x. c #FFFEF1",
"c. c #FFFFF2",
"v. c #FFFFF3",
"b. c #FEFDF0",
"n. c #FFFFF4",
"m. c #FFFFF5",
"M. c #FFFFF7",
"N. c #FFFFF4",
/* pixels */
"                                                                                                                                ",
"                                                                                                                                ",
"                                                                                                                                ",
"                                                                                                                                ",
"                                                        c.c.c.c.c.c.c.c.                                                        ",
"                                                        c.c.c.c.c.c.c.c.                                                        ",
"                                                  c.                    h.                                                      ",
"                                                c.c.c.c.                c.c.c.c.                                                ",
"                                                c.c.c.c.                c.c.c.c.                                                ",
"                                                c.c.c.c.                                                                        ",
"                                                c.c.c.c.                                                                        ",
"                                                  c.c.                                                                          ",
"                                                        T T T T                                                                 ",
"                                                        ! ! ! !                                                                 ",
"                                                c.c.c.c.f.s.s.h.c.c.c.c.c.c.c.c.                                                ",
"                                                c.c.c.c.c.n.n.c.c.c.c.c.c.c.c.c.                                                ",
"                                          c.c.c.c.c.c.c.c.c.c.c.c.c.c.c.c.c.c.c.c.c.c.                                          ",
"                                          c.c.c.c.c.c.c.c.c.c.c.c.c.c.c.c.c.c.c.c.c.c.                                          ",
"                                    c.  c.c.c.c.c.c.c.c.c.c.c.c.c.c.c.c.c.c.c.c.c.c.c.                                          ",
"                                  c.c.c.c.c.n.c.c.c.c.c.c.c.c.c.c.c.c.c.c.c.c.c.c.c.c.                                          ",
"                                  c.c.c.c.s.s.s.c.c.c.c.c.c.c.c.c.c.c.c.c.c.c.c.c.c.c.                                          ",
"                                  c.c.n.u.! Q O.k.c.c.c.c.c.c.c.c.c.c.c.c.c.c.c.c.c.c.c.c.c.c.                                  ",
"                                  c.c.c.q.T T W f.c.c.c.n.n.n.n.c.c.c.c.c.c.c.c.c.c.c.c.c.c.c.                                  ",
"                                  c.c.n.t.] ' [ h.c.c.j.4.%.%.4.j.c.c.c.c.c.c.c.c.c.c.c.c.c.c.                                  ",
"                                  c.c.n.y.` ` | d.n.c.d.} ) ) | g.n.c.n.c.c.c.c.c.c.c.c.c.c.c.                                  ",
"                                  c.c.n.r./ ~ _ y.a.a.a.} } ) } 0.q.q.u.l.c.c.c.c.c.c.c.c.c.c.                                  ",
"                          c.c.c.c.c.c.n.,., , < {  .| | } ) } / 2 1 1 3 i.c.c.n.c.c.c.c.c.c.c.c.c.c.c.                          ",
"                          c.c.c.c.c.c.n.,.- # ; _  .} } | | | ^ ; # # > e.a.a.a.c.c.c.c.c.c.c.c.c.c.c.                          ",
"                          c.c.c.c.c.n.n.,.- - > =.6.6.6.6.6.6.=.> - - > {  . ...d.c.c.c.c.c.c.c.c.c.c.                          ",
"                          c.c.c.c.n.n.n.,.- @ > ;.8.8.8.8.7.9.;.> @ @ ; / ` `  .d.c.c.c.c.c.c.c.c.c.c.                          ",
"                          c.c.n.s.:.:.:.#.H H K 6.8.8.8.7.7.8.6.K H H J ` ` `  .d.c.c.c.c.c.c.c.c.c.c.c.  c.                    ",
"                          c.c.c.q.T T I o.9.9.9.9.8.8.8.9.8.9.7.9.9.9.7.| ` `  .d.n.c.c.c.c.c.c.c.c.c.c.c.n.c.                  ",
"                          c.c.c.q.E T T o.-.-.-.=.=.=.=.&.&.&.&.&.&.&.*.( G G ( i.h.s.j.c.c.c.c.c.c.c.k.s.h.s.                  ",
"                          c.c.n.q.E T E L v v h i i i u = * * * * * * = r p u i R Q ! i.c.c.c.c.c.c.c.@.Q ! Q                   ",
"                          c.c.n.q.E T E L s s s 9 7 6 6 o X X X X X X o 4 7 9 r Y E E s.n.n.n.n.n.n.n.O.T T T                   ",
"                        c.c.c.n.w.x x x m s s s e e q q 4 % % % $ % % % w e e p l x x X.>.:.:.:.:.:.:.! T T T                   ",
"                  c.c.c.c.n.c.n.5.s s s s s s s s s s s 9 9 9 9 7 7 9 9 s s s s s s s J I T I T T T T T T T T                   ",
"                  c.c.c.c.s.s.f.=.a a a s s s s h h h h u q q q 0 9 9 w s s s s s a a J E T T T T T E T T T T                   ",
"                  c.c.n.u.! ! ! L 0 9 9 0 s s d C S S S S S S C s a a a s s s s 0 9 9 J E E E T T T T T T T T                   ",
"                  c.c.n.q.P P P M 7 7 7 0 s s h C S S S Z Z Z V d s s s s s s a 9 7 9 B U P K Y T T T T T T E                   ",
"                  c.c.n.3.y t t r 7 7 7 0 s s a h h h g & + + * a s s s s s s a 9 9 7 r t t t H E E T T T T T                   ",
"                  n.n.n.2.7 7 7 7 7 7 7 0 s s s s s s a O X X O p s s s s s s a 9 9 7 7 7 7 7 H E E E E T T E                   ",
"                  <.>.>.X.7 7 7 7 7 7 7 9 e e e e e e 0 O o o O 0 e p e e e e w 9 7 7 7 7 7 7 j k k k K E T T                   ",
"                  I T E J 7 7 7 7 7 7 7 7 7 9 9 7 7 9 6 o o o O 8 7 7 9 7 7 9 7 7 7 7 7 7 7 7 7 7 7 7 J E T T                   ",
"                  T T E J 7 7 7 7 7 7 7 7 7 7 7 7 7 7 6 O o o O 8 9 7 7 7 7 7 7 7 7 9 7 7 7 7 7 7 7 7 J E T E                   ",
"                          7 7 7 7 7 7 7 7 7 7 7 7 7 7 6 O X o O 8 7 7 7 7 7 7 9 7 7 7 7 7 7 7 7 7 7 7 J E T T                   ",
"                          7 7 7 7 7 7 7 7 7 7 7 7 7 6 6 o X X o 6 7 7 7 7 7 7 7 7 7 7 7 7 7 7 7 7 7 7 J E T T                   ",
"                          7 7 7 7 7 7 7 7 7 9 9 b n b b f f f f n n b b 9 7 7 7 7 7 7 7 7 7 7 9 7 7 7 z                         ",
"                          7 7 7 7 7 7 7 7 7 7 r D F F F F F F F F F F D r 7 7 7 7 7 7 9 7 7 7 7 7 7 7                           ",
"                          7 7 7 7 7 7 9 7 7 7 q V Z Z Z Z Z Z Z Z A A V q 7 7 7 7 7 7 7 7 7 7 9 7 7 7                           ",
"                                  7 7 9 7 7 7 8 + + + + * + + + + + + + 7 7 9 7 7 7 7 7 7 7 9                                   ",
"                                  8 5 8 5 5 8 4 o X X X X X X o X X X o 4 5 8 5 8 5 8 5 5 5 8                                   ",
"                                  O O O O O O O o o o o X o o X o o o o O O O O O O O O O O O                                   ",
"                                  X o o o X X X o o o X X o o X o X o X X X X o X X X o o X o                                   ",
"                                    X . O $ $ $ X . . . . . . X . X X X X X X X % % % o . . X                                   ",
"                                          9 7 7                                 7 9 9                                           ",
"                                          9 7 7                                 7 7 9                                           ",
"                                          9 7 9                                 7 7 7                                           ",
"                                          9 7 7                                 7 7 7                                           ",
"                                          6 4                                     4 4                                           ",
"                                                                                                                                ",
"                                                                                                                                ",
"                                                                                                                                ",
"                                                                                                                                "
};
