/* XPM */
static char *ea62a1d7dd664369b091796dc75e79e6lzOJejnoAJ6TeIEz[] = {
/* columns rows colors chars-per-pixel */
"64 64 161 2 ",
"   c None",
".  c #462E1D",
"X  c #492E1D",
"o  c #5E2921",
"O  c #4D3520",
"+  c #503520",
"@  c #543639",
"#  c #56393C",
"$  c #593B3D",
"%  c #6B2C22",
"&  c #682623",
"*  c #7D2A25",
"=  c #763026",
"-  c #7C3729",
";  c #7A3F33",
":  c #59412E",
">  c #744C4A",
",  c #735B5A",
"<  c #822A26",
"1  c #8A2927",
"2  c #8C2B28",
"3  c #852727",
"4  c #962929",
"5  c #9F2D2C",
"6  c #97342D",
"7  c #8A3A32",
"8  c #A5262B",
"9  c #AA272C",
"0  c #AC282D",
"q  c #B22A2F",
"w  c #AA2E31",
"e  c #B52C30",
"r  c #BC2E32",
"t  c #AC3235",
"y  c #AF3438",
"u  c #AB3E3F",
"i  c #B33233",
"p  c #B33E34",
"a  c #B23B3C",
"s  c #BD3839",
"d  c #C33134",
"f  c #CA3437",
"g  c #CD3538",
"h  c #CC3B39",
"j  c #BC4237",
"k  c #AE5439",
"l  c #BB543B",
"z  c #CE4A3D",
"x  c #CC433B",
"c  c #AC4242",
"v  c #AD4C4A",
"b  c #BD4241",
"n  c #AB514E",
"m  c #AD5752",
"M  c #B55C57",
"N  c #9C665E",
"B  c #AF6C40",
"V  c #856E6D",
"C  c #86706E",
"Z  c #9A7C77",
"A  c #AE6760",
"S  c #BF6C63",
"D  c #AE786E",
"F  c #B37065",
"G  c #B47A70",
"H  c #CC4445",
"J  c #CF4846",
"K  c #C74443",
"L  c #D04846",
"P  c #D04644",
"I  c #C75E41",
"U  c #C4534F",
"Y  c #C25551",
"T  c #C46A43",
"R  c #D16444",
"E  c #D67C4B",
"W  c #C8635C",
"Q  c #C57970",
"!  c #B28B48",
"~  c #BE8B4B",
"^  c #9D8274",
"/  c #A78F7F",
"(  c #B08E7F",
")  c #A9907F",
"_  c #C48B4C",
"`  c #D8874F",
"'  c #D18B4E",
"]  c #C39B50",
"[  c #CC9B51",
"{  c #DC9C55",
"}  c #DEAC59",
"|  c #E3B75D",
" . c #E4BB5E",
".. c #C88678",
"X. c #F58F7C",
"o. c #A79180",
"O. c #A99181",
"+. c #B09686",
"@. c #B29B8A",
"#. c #B0A08D",
"$. c #AFAE99",
"%. c #AEAD97",
"&. c #B2AF9A",
"*. c #B4A697",
"=. c #B2B09B",
"-. c #B7B6A1",
";. c #B9B7A2",
":. c #BAB9A4",
">. c #D69583",
",. c #F59984",
"<. c #FF9D86",
"1. c #FF9F89",
"2. c #F49782",
"3. c #CEAB94",
"4. c #CEA792",
"5. c #CCB79E",
"6. c #FFA48D",
"7. c #FFAA93",
"8. c #FFAF9A",
"9. c #F0B197",
"0. c #F5B09F",
"q. c #FFB19C",
"w. c #C4BAAC",
"e. c #FFB9A5",
"r. c #FFBEAA",
"t. c #F7B4A1",
"y. c #C3C0AD",
"u. c #DCC0AD",
"i. c #C5C5B2",
"p. c #CDCCBA",
"a. c #D3D1BF",
"s. c #E6CDAF",
"d. c #FFC4AB",
"f. c #FFC6B4",
"g. c #EAD7B4",
"h. c #E7D5B4",
"j. c #F5D7B6",
"k. c #F9D8B7",
"l. c #EDE0BE",
"z. c #FFE3BF",
"x. c #D5D3C2",
"c. c #DBDAC9",
"v. c #FFD8C7",
"b. c #FEDBCA",
"n. c #F9D1C1",
"m. c #FFE7C2",
"M. c #FFEFC9",
"N. c #FFF2CB",
"B. c #E6E6D6",
"V. c #EFE4D7",
"C. c #EBEADB",
"Z. c #F7EADF",
"A. c #FFE8D8",
"S. c #F8E3D4",
"D. c #F4F3E5",
"F. c #FEF1E4",
"G. c #F6F6E9",
"H. c #FDF6E9",
"J. c #FCFAED",
"K. c #FFFFF4",
"L. c #FFFFF2",
/* pixels */
"                                                                                                                                ",
"                                                                                                                                ",
"                                                                                                                                ",
"                                                                                                                                ",
"                                                        L.L.L.L.L.L.L.                                                          ",
"                                                        L.L.L.L.L.L.L.L.                                                        ",
"                                                        L.L.L.L.L.L.L.L.                                                        ",
"                                                L.L.L.L.                L.L.L.L.                                                ",
"                                                L.L.L.L.                L.L.L.L.                                                ",
"                                                                        L.L.L.L.                                                ",
"                                                                        L.L.L.L.                                                ",
"                                                                        L.L.L.L.                                                ",
"                                                                &.&.&.=.                                                        ",
"                                                                =.&.&.&.                                                        ",
"                                                  L.L.L.L.L.L.G.C.C.C.D.L.L.L.                                                  ",
"                                                L.L.L.L.L.L.L.L.K.K.L.L.L.L.L.L.                                                ",
"                                        L.L.L.L.L.L.L.L.L.L.L.L.L.L.L.L.L.L.L.L.L.L.L.L.                                        ",
"                                        L.L.L.L.L.L.L.L.L.L.L.L.L.L.L.L.L.L.L.L.L.L.L.L.                                        ",
"                                        L.L.L.L.L.L.L.L.L.L.L.L.L.L.L.L.L.L.L.L.L.L.L.L.                                        ",
"                                        L.L.L.L.L.L.L.L.L.L.L.L.L.L.L.L.L.L.L.L.L.L.L.L.L.L.L.                                  ",
"                                        L.L.L.L.L.L.L.L.L.L.L.L.L.L.L.L.L.L.L.L.J.L.J.L.L.L.L.                                  ",
"                                L.L.L.L.L.L.L.L.L.L.L.L.L.L.L.L.L.L.L.L.L.L.K.C.y.y.w.a.L.L.L.                                  ",
"                                L.L.L.L.L.L.L.L.L.L.L.L.L.L.L.L.K.K.K.L.L.L.L.B.%.$.%.i.L.L.L.                                  ",
"                                L.L.L.L.L.L.L.L.L.L.L.L.L.L.K.F.b.b.b.A.L.L.L.V.3.4.4.u.L.L.L.                                  ",
"                                L.L.L.L.L.L.L.L.L.L.L.L.L.L.K.v.<.<.<.r.K.K.K.S.6.<.<.e.L.L.L.                                  ",
"                                L.L.L.L.L.L.L.L.L.L.L.J.D.D.G.n.<.1.<.d.L.H.J.b.,.,.2.t.L.L.L.                                  ",
"                        L.L.L.L.L.L.L.L.L.L.L.L.K.K.K.w., , , F 6.6.<.6.8.8.q.>.> > > Z L.L.L.L.L.L.L.                          ",
"                        L.L.L.L.L.L.L.L.L.L.L.L.J.H.J.*.@ # @ N 6.6.6.6.6.6.6...$ # # C L.L.L.L.L.L.L.                          ",
"                        L.L.L.L.L.L.L.L.L.L.L.K.f.7.8.G # $ @ / m.z.z.z.z.z.m.3.$ $ $ C K.L.L.L.L.L.L.                          ",
"                        L.L.L.L.L.L.L.L.L.L.L.L.r.<.6.F # $ @ ^ N.M.M.M.M.M.N.5.# $ # C K.K.K.L.L.L.L.                          ",
"                        L.L.L.L.L.L.L.L.L.L.L.L.r.<.1.>.o.O.O.w.N.M.M.M.M.M.N.h.O.O.o.*.c.c.c.L.L.L.L.                          ",
"                L.L.K.L.L.L.L.L.L.L.L.L.L.L.L.K.r.<.1.d.N.N.N.N.M.N.M.N.M.M.N.M.N.N.N.j.%.%.=.J.L.L.L.                          ",
"                G.G.G.G.L.L.L.L.L.L.L.L.G.G.G.G.0.X.X.9.g.g.g.g.h.g.g.g.j.j.j.j.k.k.k.s.&.&.;.J.L.L.L.                          ",
"                :.;.;.:.D.L.L.L.L.L.L.L.p.-.:.:.M i i 7 : : : @ : : : ; a a a s P H P W &.&.-.J.L.L.L.                          ",
"                &.&.&.&.D.L.L.L.L.K.K.K.i.$.=.=.n 8 9 * . . . . . . . % 9 9 9 q f f f Y =.-.:.J.L.L.L.                          ",
"                &.&.&.&.p.x.x.a.x.x.x.x...S S W j r r 5 * * * < * * * 2 r r r d f f f K W S G H.L.L.L.L.L.L.L.                  ",
"                &.&.&.&.&.&.%.&.%.%.&.%.U f f f f f f r 9 9 9 0 9 9 9 e f f f f f f f f f f P F.K.L.L.L.L.L.L.                  ",
"                &.=.&.=.&.&.&.&.%.=.&.&.Y d d f f f f d q 0 0 e p p p j z z z x f f f f d d H V.D.D.D.L.L.L.L.                  ",
"                &.&.&.&.&.=.=.&.=.=.=.=.v 0 9 9 d f f f d f f R } } } } } } } ` f f f d 0 0 t &.-.:.:.J.L.L.L.                  ",
"                =.&.=.&.&.&.&.&.@.+.+.+.c 9 9 9 d f f f f f f T ] ] ] [ { { { E f f f d 0 0 t ) O.+.@.G.L.L.L.                  ",
"                &.&.=.&.&.=.&.&.v w w w 0 0 9 9 d h f f f f g 6 + + + - g g h h f f f d 9 9 0 t w w a Z.L.L.L.                  ",
"                &.=.&.&.=.=.=.&.c 0 9 9 0 8 9 9 r f f f f f g 6 . . . = f f h f f f f d 9 9 9 9 9 9 t Z.K.L.L.                  ",
"                &.&.&.&.A n m n t 8 0 0 9 0 0 9 q e e q e e e 2 . . . % e e e e e e e e 0 9 9 0 9 9 t w.p.p.p.                  ",
"                &.=.&.&.u 9 9 9 0 0 0 8 9 8 9 9 9 9 9 9 8 9 0 < . . . % 9 0 8 0 9 8 9 8 9 8 9 9 9 9 t @.&.&.&.                  ",
"                &.&.&.*.u 9 9 9 9 9 0 8 9 9 0 9 9 9 9 9 9 9 9 < . . . % 0 0 0 8 9 9 9 9 9 9 9 9 9 9 w @.=.&.&.                  ",
"                =.&.&.&.u 9 9 9 9 9 9 9 9 9 9 9 9 9 9 9 9 9 9 < . X . % 0 0 0 0 9 9 9 9 9 9 9 9 9 9 9                           ",
"                =.&.=.*.u 9 8 0 9 0 9 9 9 9 9 8 9 9 9 9 0 9 0 < . X X % 0 0 0 8 9 9 9 9 9 8 9 9 9 9 9                           ",
"                        w 9 9 9 9 9 0 9 9 9 9 0 9 9 9 l ' ' ' _ ! ! ! ~ ' ' ' T 9 9 9 9 9 9 9 0 9 9 9                           ",
"                        0 9 9 9 9 9 9 0 9 9 9 9 0 9 8 T  . . .| | | |  .| |  .' 9 9 9 9 9 9 9 9 9 9 9                           ",
"                        0 9 9 8 9 0 9 9 9 9 9 9 9 9 9 k ! ! ! ! ! ! ! ! ! ! ! B 9 9 9 9 9 9 9 8 9 9 9                           ",
"                                9 9 0 0 9 0 9 9 9 9 9 3 X X X X . . X X X X X % 9 0 9 9 9 9 9                                   ",
"                                2 1 1 1 1 1 1 1 1 1 1 & . . X X . X X . X X X o 1 1 1 2 2 2 4                                   ",
"                                X X X X X X . X X X X X X X X X X X . X X X X X X X X X X X X                                   ",
"                                X X X X X X X + X X . . . . . X . X X . X X . X X X X X X X X                                   ",
"                                        1 4 4 4 &                             & 4 4 5 3                                         ",
"                                        9 0 9 9                                 9 9 9 8                                         ",
"                                        8 9 9 9                                 9 9 9 8                                         ",
"                                        9 9 9 9                                 9 9 9 8                                         ",
"                                        8 9 8 9                                 9 8 9 8                                         ",
"                                                                                                                                ",
"                                                                                                                                ",
"                                                                                                                                ",
"                                                                                                                                ",
"                                                                                                                                "
};
