/* XPM */
static char *_6cb51de79dc44a7a83cc448d7270125CEpYRRUrNWWeKoLa[] = {
/* columns rows colors chars-per-pixel */
"64 64 4 1 ",
"  c #1A7A3E",
". c #18BA18",
"X c #14A02E",
"o c #59C135",
/* pixels */
"                     XXXXXXXXoooooooo                           ",
"                     XXXXXXXXoooooooo                           ",
"                     XXXXXXXXoooooooo                           ",
"                     XXXXXXXXoooooooo                           ",
"                     XXXXXXXXoooooooo                           ",
"                     XXXXXXXXoooooooo                           ",
"                     XXXXXXXXoooooooo                           ",
"                     XXXXXXXXoooooooo                           ",
"XXXXXoooooooo        ........XXXXXXXXoooooooo        XXXXXXXX...",
"XXXXXoooooooo        ........XXXXXXXXoooooooo        XXXXXXXX...",
"XXXXXoooooooo        ........XXXXXXXXoooooooo        XXXXXXXX...",
"XXXXXoooooooo        ........XXXXXXXXoooooooo        XXXXXXXX...",
"XXXXXoooooooo        ........XXXXXXXXoooooooo        XXXXXXXX...",
"XXXXXoooooooo        ........XXXXXXXXoooooooo        XXXXXXXX...",
"XXXXXoooooooo        ........XXXXXXXXoooooooo        XXXXXXXX...",
"XXXXXoooooooo        ........XXXXXXXXoooooooo        XXXXXXXX...",
"     XXXXXXXXoooooooo        XXXXXXXXooooooooXXXXXXXX        ...",
"     XXXXXXXXoooooooo        XXXXXXXXooooooooXXXXXXXX        ...",
"     XXXXXXXXoooooooo        XXXXXXXXooooooooXXXXXXXX        ...",
"     XXXXXXXXoooooooo        XXXXXXXXooooooooXXXXXXXX        ...",
"     XXXXXXXXoooooooo        XXXXXXXXooooooooXXXXXXXX        ...",
"     XXXXXXXXoooooooo        XXXXXXXXooooooooXXXXXXXX        ...",
"     XXXXXXXXoooooooo        XXXXXXXXooooooooXXXXXXXX        ...",
"     XXXXXXXXoooooooo        XXXXXXXXooooooooXXXXXXXX        ...",
"             oooooooo                        XXXXXXXX        ...",
"             oooooooo                        XXXXXXXX        ...",
"             oooooooo                        XXXXXXXX        ...",
"             oooooooo                        XXXXXXXX        ...",
"             oooooooo                        XXXXXXXX        ...",
"             oooooooo                        XXXXXXXX        ...",
"             oooooooo                        XXXXXXXX        ...",
"             oooooooo                        XXXXXXXX        ...",
"XXXXXXXXXXXXX        XXXXXXXX                                   ",
"XXXXXXXXXXXXX        XXXXXXXX                                   ",
"XXXXXXXXXXXXX        XXXXXXXX                                   ",
"XXXXXXXXXXXXX        XXXXXXXX                                   ",
"XXXXXXXXXXXXX        XXXXXXXX                                   ",
"XXXXXXXXXXXXX        XXXXXXXX                                   ",
"XXXXXXXXXXXXX        XXXXXXXX                                   ",
"XXXXXXXXXXXXX        XXXXXXXX                                   ",
"XXXXX                XXXXXXXXXXXXXXXX                XXXXXXXX   ",
"XXXXX                XXXXXXXXXXXXXXXX                XXXXXXXX   ",
"XXXXX                XXXXXXXXXXXXXXXX                XXXXXXXX   ",
"XXXXX                XXXXXXXXXXXXXXXX                XXXXXXXX   ",
"XXXXX                XXXXXXXXXXXXXXXX                XXXXXXXX   ",
"XXXXX                XXXXXXXXXXXXXXXX                XXXXXXXX   ",
"XXXXX                XXXXXXXXXXXXXXXX                XXXXXXXX   ",
"XXXXX                XXXXXXXXXXXXXXXX                XXXXXXXX   ",
"                     XXXXXXXX                                ooo",
"                     XXXXXXXX                                ooo",
"                     XXXXXXXX                                ooo",
"                     XXXXXXXX                                ooo",
"                     XXXXXXXX                                ooo",
"                     XXXXXXXX                                ooo",
"                     XXXXXXXX                                ooo",
"                     XXXXXXXX                                ooo",
"     XXXXXXXX        XXXXXXXX        XXXXXXXX                ooo",
"     XXXXXXXX        XXXXXXXX        XXXXXXXX                ooo",
"     XXXXXXXX        XXXXXXXX        XXXXXXXX                ooo",
"     XXXXXXXX        XXXXXXXX        XXXXXXXX                ooo",
"     XXXXXXXX        XXXXXXXX        XXXXXXXX                ooo",
"     XXXXXXXX        XXXXXXXX        XXXXXXXX                ooo",
"     XXXXXXXX        XXXXXXXX        XXXXXXXX                ooo",
"     XXXXXXXX        XXXXXXXX        XXXXXXXX                ooo"
};
