/* XPM */
static char *result[] = {
/* columns rows colors chars-per-pixel */
"64 64 85 1 ",
"  c #3D2621",
". c #402723",
"X c #432A25",
"o c #4E332C",
"O c #52362F",
"+ c #523730",
"@ c #543931",
"# c #593C34",
"$ c #17541B",
"% c #19541C",
"& c #1B5D1F",
"* c #24441D",
"= c #20571F",
"- c #255D1C",
"; c #2A5D1A",
": c #24611E",
"> c #2C641D",
", c #32671C",
"< c #32691E",
"1 c #1E5721",
"2 c #1E5E21",
"3 c #245424",
"4 c #215924",
"5 c #245228",
"6 c #1F6022",
"7 c #2C6622",
"8 c #236A27",
"9 c #2C6922",
"0 c #276D29",
"q c #2A6F29",
"w c #346D21",
"e c #396E26",
"r c #3C6D28",
"t c #2C742D",
"y c #367325",
"u c #357529",
"i c #3C742B",
"p c #377A2D",
"a c #397C2C",
"s c #2F7B32",
"d c #377E32",
"f c #387E31",
"g c #63443B",
"h c #67483E",
"j c #68493E",
"k c #6C4C41",
"l c #6F5146",
"z c #715247",
"x c #715349",
"c c #3B812F",
"v c #348436",
"b c #3B8432",
"n c #3E8A36",
"m c #358538",
"M c #3A8739",
"N c #3C8D3D",
"B c #3E913D",
"V c #428737",
"C c #408A37",
"Z c #418E39",
"A c #488B3F",
"S c #41933C",
"D c #43983F",
"F c #3E9341",
"G c #419741",
"H c #449D45",
"J c #449F48",
"K c #489E4A",
"L c #46A246",
"P c #46A449",
"I c #49A54A",
"U c #4BAE4E",
"Y c #4BB04F",
"T c #4CAF50",
"R c #51AE53",
"E c #4DB051",
"W c #51B155",
"Q c #56B35A",
"! c #5AB65D",
"~ c #5DB760",
"^ c #5EB861",
"/ c #60B763",
"( c #65B967",
") c #65B968",
"_ c None",
/* pixels */
"________________________________________________________________",
"________________________________________________________________",
"________________________________________________________________",
"_____________________________EEEEEEEEEWETQ______________________",
"____________________________AIIIIUIIIIIIII______________________",
"___________________________,uHJHJFPLPJJJLC<w____________________",
"_______________________)__IZCbccvbbcccvbbbCCi___________________",
"______________________)!QYUEH<<,<<,,,,><<aYL<e__________________",
"__________________QQ/(QWWUYYL<<SBSSSSSSDSHYUSDWQ________________",
"__________________WY!!WUUYYYH<uIYYYYYYYYYYTUYRYU________________",
"________________<iIYWWYYYYDacDHUY!!!!!QQQ!!Q!QWYQR______________",
"________________yyLUYYYUUUS<cYEYY!!!/!^!^!~~!!UUTT______________",
"______________WTILcyLEYYZwVLIUE!!WWWYWEWRRRYWYUYTUEW____________",
"______________TTYIw<BIIYC,cYYUEQ!EUYYUYUYYYUYYYUTUUT____________",
"____________TW~!YIy<wynLc,cYUYUEYYYUUYUYYYUYYYUYYYET____________",
"___________!WW!QYIcyaunBcynYYUYYYYYYYUYUYYYUYUYUYEUII___________",
"_________QEQ!QYTYUYUUUc<bHLYYEYUYYYYYUYYYYYYUYUYUYPJV,r_________",
"_________QWQQQYUYUIIHSp<anGIPDHIPPUPIUYYYYYYYUYUIUBMbaV_________",
"_______QYQ^QYYUUUUPJy,,,<,aHB<yGJJLJJPEYUYYYUYYYPLa<ZUUYQ_______",
"_______QWQQWYUYUIInbnny,unbnc<wbMmbMnFIUIPPIIPIPNbbnHYYUW_______",
"_____WE!~QUUYYUULGy<DYc,CYS,,,<>,,<,,bLFJFPJJJHJy,DYYUUYUTW_____",
"_____IIIRIPPPPPLbc<<HYDZLYLSBZBBBZZy,uccbdacccaaw,DYUYYUYTT_____",
"_____KJHHHHHHHHB<<<<HYYEEYYEYYUYYYYc,<<<,<<<,,,,<<SYUUUYUTW_____",
"_____fupuaauupay<wSDIYYYW!QQQQ~QQYILDDDc,uDFDDDDDDnacacaV_______",
"_____e<,,<<<,<<<<yPYYUETW~~~^^~^!ERYYYYS,cUYYYYYYYc<<<<<e_______",
"___QELHa,bLC,uLLLLUYUYW~QEEEEEWEW!!!!WYULSucUYYYYYPHLJLJIWQ_____",
"___WUYYbwSYS<aIIYYUUUUQ~WEEEYUYUY!!!!WYYYDyaLIYYUYYEYYYYUUW_____",
"_RWUYYYIIIYS<<yaIYUYEUEEEUTEUEUYYYEERUYUUUPFyaIYYUYUYUEUUYW_____",
"_TYPLUYYYYYS<<<yPUUYUYYYYYUEUUYUUYYRYYUYUYEL<yPIUUYUUYUYUYW_____",
"_EIyyLEEYYYB<,<wNFUEYYYEYUYUUYUEYUYUYYYUUUEL<wGPUUUETUYUYYYEW___",
"_FBw<GIPIPPn,<>9bbPPPIIIIYUYYUYUUYUYYUUYYUIGwwFLPUIUIUUIIHLUE___",
"_86><nBNBBBd<>&:>wMNNNNNPUYYYYYYYYYYYYYYEPFb<yFPJPFPLJLHB<yIUTE_",
"_2&:>pffdabu::2-:7tsddMNFPLPJPLPLLLPLPPJLFbp:>vvnnmvvvvvvpbUYYY_",
"_2&2&><<<<<:&&&&&&2&><dNNNNNNNNNNNNNNNNNNb<>&&&&:w:&&6&&0FHYYYE_",
"_&%%&-=--:::&&&&&6&&7<yppppppppppppppppttq::&&&&::6&&&6smFHBnPI_",
"_%%$$$%%$$&6&&&&&&&&><<<<<<<><<<<<<<<<<:&&&&6&&&&&&&&&sJPPBwwBP_",
"___%$%$%$%&%%&&&&&>>::::::::-:::::::::::>:&&&&&&&&:><svFMuu--0q_",
"___4%%%$%$$$%%&&&6><-&&&2&&&&&2&&&&&&&&:<>&&&&&&&&>,pNNNf;-$$$1_",
"_____1%%%%$$$%%%%%:>&%$&&&&&&&&&&&&&&&&66:>>;;;;:;>>><9<753%%___",
"_____3%%%%$$$%%$%$;;&$$2&&&&&&&&&&&&&&&&&-<>;;;;>;;;>;;;;5511___",
"_________4$%%%%%;;=%%$%%$%%&&&&&&%$%%%%%%%%%=%%=%%=%%%%%%14_____",
"__________=%%1%4>;%$$%%$%%%&&&&&&$%$%%%$%$%%$%%%%4%%=%4%1%4_____",
"__________________1$%%$%%%$$$$$$$$$%%%$$$%%%$$%%________________",
"__________________44%=%%$$$$$$$%$$%$%%11%4%4%444________________",
"______________________4%%%$$$$$$$$$$$___________________________",
"_______________________411113********___________________________",
"_____________________________        ___________________________",
"_____________________________    oOO+___________________________",
"_____________________________   Xgkkl___________________________",
"_____________________________..@#jkkk___________________________",
"_____________________________.Xjkkkkk___________________________",
"_____________________________XXjkkkkk___________________________",
"_____________________________XXjkjkkk___________________________",
"_____________________________ggkkkkkk___________________________",
"_____________________________kkkkkkkk___________________________",
"_____________________________kkkjkkkk___________________________",
"_____________________________kkkkkkkk___________________________",
"_____________________________kkkkkkkk___________________________",
"_____________________________kkkkkkjkx__________________________",
"___________________________lkkkkkkkkjkzx________________________",
"___________________________xxkkkkkkkzzx_________________________",
"_____________________________kkkkkkkj___________________________",
"______________________________xxxxxxx___________________________",
"________________________________________________________________"
};
